<svg width="75" height="75" viewBox="0 0 75 75" fill="none" xmlns="http://www.w3.org/2000/svg">
<path d="M74.9917 18.7543L37.4917 37.5L0.00012207 18.7543L37.4917 0L74.9917 18.7543Z" fill="#F5E48C"/>
<path d="M74.9913 56.2457L37.4913 74.9999V37.4999L74.9913 18.7542V56.2457Z" fill="url(#paint0_linear_24)"/>
<path d="M37.4916 74.9999L0 56.2457V18.7542L37.4916 37.4999V74.9999Z" fill="url(#paint1_linear_24)"/>
<path d="M44.4374 38.22C42.9127 38.9823 41.6844 40.8289 41.6844 42.3537C41.6844 43.8784 42.9212 44.4883 44.4374 43.7344C45.9622 42.972 47.1904 41.1254 47.1904 39.6007C47.1904 38.0759 45.9622 37.4576 44.4374 38.22ZM44.4374 46.0893C42.9127 46.8516 41.6844 48.6983 41.6844 50.223C41.6844 51.7477 42.9212 52.3576 44.4374 51.6037C45.9622 50.8414 47.1904 48.9948 47.1904 47.47C47.1904 45.9453 45.9622 45.3269 44.4374 46.0893ZM44.4374 61.828C42.9127 62.5903 41.6844 64.437 41.6844 65.9617C41.6844 67.4864 42.9212 68.0963 44.4374 67.3424C45.9622 66.58 47.1904 64.7334 47.1904 63.2087C47.1904 61.684 45.9622 61.0656 44.4374 61.828ZM44.4374 53.9586C42.9127 54.721 41.6844 56.5676 41.6844 58.0923C41.6844 59.6171 42.9212 60.227 44.4374 59.4731C45.9622 58.7107 47.1904 56.8641 47.1904 55.3394C47.1904 53.8146 45.9622 53.1962 44.4374 53.9586ZM52.3068 42.1504C50.782 42.9128 49.5538 44.7594 49.5538 46.2841C49.5538 47.8089 50.7905 48.4188 52.3068 47.6649C53.8315 46.9025 55.0597 45.0559 55.0597 43.5311C55.0597 42.0064 53.8315 41.3965 52.3068 42.1504ZM52.3068 57.8891C50.782 58.6514 49.5538 60.498 49.5538 62.0228C49.5538 63.5475 50.7905 64.1574 52.3068 63.4035C53.8315 62.6411 55.0597 60.7945 55.0597 59.2698C55.0597 57.745 53.8315 57.1352 52.3068 57.8891ZM52.3068 50.0197C50.782 50.7821 49.5538 52.6287 49.5538 54.1535C49.5538 55.6782 50.7905 56.2881 52.3068 55.5342C53.8315 54.7718 55.0597 52.9252 55.0597 51.4005C55.0597 49.8757 53.8315 49.2658 52.3068 50.0197ZM52.3068 34.281C50.782 35.0434 49.5538 36.89 49.5538 38.4148C49.5538 39.9395 50.7905 40.5494 52.3068 39.7955C53.8315 39.0332 55.0597 37.1865 55.0597 35.6618C55.0597 34.1371 53.8315 33.5272 52.3068 34.281ZM60.1761 30.3506C58.6514 31.113 57.4231 32.9596 57.4231 34.4844C57.4231 36.0091 58.6598 36.619 60.1761 35.8651C61.7008 35.1027 62.9291 33.2561 62.9291 31.7314C62.9291 30.2066 61.7008 29.5883 60.1761 30.3506ZM60.1761 38.22C58.6514 38.9823 57.4231 40.8289 57.4231 42.3537C57.4231 43.8784 58.6598 44.4883 60.1761 43.7344C61.7008 42.972 62.9291 41.1254 62.9291 39.6007C62.9291 38.0759 61.7008 37.4576 60.1761 38.22ZM60.1761 53.9586C58.6514 54.721 57.4231 56.5676 57.4231 58.0923C57.4231 59.6171 58.6598 60.227 60.1761 59.4731C61.7008 58.7107 62.9291 56.8641 62.9291 55.3394C62.9291 53.8146 61.7008 53.1962 60.1761 53.9586ZM60.1761 46.0893C58.6514 46.8516 57.4231 48.6983 57.4231 50.223C57.4231 51.7477 58.6598 52.3576 60.1761 51.6037C61.7008 50.8414 62.9291 48.9948 62.9291 47.47C62.9291 45.9453 61.7008 45.3269 60.1761 46.0893ZM68.0454 34.281C66.5207 35.0434 65.2924 36.89 65.2924 38.4148C65.2924 39.9395 66.5292 40.5494 68.0454 39.7955C69.5702 39.0332 70.7984 37.1865 70.7984 35.6618C70.7984 34.1371 69.5702 33.5187 68.0454 34.281ZM68.0454 31.9177C69.5702 31.1554 70.7984 29.3087 70.7984 27.784C70.7984 26.2593 69.5617 25.6494 68.0454 26.4033C66.5207 27.1656 65.2924 29.0123 65.2924 30.537C65.2924 32.0617 66.5292 32.6801 68.0454 31.9177ZM68.0454 42.1504C66.5207 42.9128 65.2924 44.7594 65.2924 46.2841C65.2924 47.8089 66.5292 48.4188 68.0454 47.6649C69.5702 46.9025 70.7984 45.0559 70.7984 43.5311C70.7984 42.0064 69.5702 41.388 68.0454 42.1504ZM68.0454 50.0197C66.5207 50.7821 65.2924 52.6287 65.2924 54.1535C65.2924 55.6782 66.5292 56.2881 68.0454 55.5342C69.5702 54.7718 70.7984 52.9252 70.7984 51.4005C70.7984 49.8757 69.5702 49.2574 68.0454 50.0197Z" fill="white"/>
<path d="M27.8015 39.6006C27.8015 41.1254 29.0383 42.972 30.5545 43.7344C32.0793 44.4967 33.3075 43.8784 33.3075 42.3536C33.3075 40.8289 32.0708 38.9823 30.5545 38.2199C29.0298 37.4575 27.8015 38.0759 27.8015 39.6006ZM27.8015 47.47C27.8015 48.9947 29.0383 50.8413 30.5545 51.6037C32.0793 52.3661 33.3075 51.7477 33.3075 50.223C33.3075 48.6982 32.0708 46.8516 30.5545 46.0892C29.0298 45.3269 27.8015 45.9452 27.8015 47.47ZM27.8015 63.2086C27.8015 64.7334 29.0383 66.58 30.5545 67.3423C32.0793 68.1047 33.3075 67.4864 33.3075 65.9616C33.3075 64.4369 32.0708 62.5903 30.5545 61.8279C29.0298 61.0655 27.8015 61.6839 27.8015 63.2086ZM27.8015 55.3393C27.8015 56.864 29.0383 58.7107 30.5545 59.473C32.0793 60.2354 33.3075 59.617 33.3075 58.0923C33.3075 56.5676 32.0708 54.7209 30.5545 53.9586C29.0298 53.1962 27.8015 53.8146 27.8015 55.3393ZM19.9322 43.5311C19.9322 45.0558 21.1689 46.9024 22.6852 47.6648C24.2099 48.4272 25.4382 47.8088 25.4382 46.2841C25.4382 44.7593 24.2014 42.9127 22.6852 42.1503C21.1604 41.3964 19.9322 42.0063 19.9322 43.5311ZM19.9322 59.2697C19.9322 60.7944 21.1689 62.6411 22.6852 63.4034C24.2099 64.1658 25.4382 63.5474 25.4382 62.0227C25.4382 60.498 24.2014 58.6514 22.6852 57.889C21.1604 57.1351 19.9322 57.745 19.9322 59.2697ZM19.9322 51.4004C19.9322 52.9251 21.1689 54.7717 22.6852 55.5341C24.2099 56.2965 25.4382 55.6781 25.4382 54.1534C25.4382 52.6287 24.2014 50.782 22.6852 50.0197C21.1604 49.2658 19.9322 49.8757 19.9322 51.4004ZM19.9322 35.6617C19.9322 37.1865 21.1689 39.0331 22.6852 39.7955C24.2099 40.5578 25.4382 39.9395 25.4382 38.4147C25.4382 36.89 24.2014 35.0434 22.6852 34.281C21.1604 33.5271 19.9322 34.137 19.9322 35.6617ZM12.0629 31.7228C12.0629 33.2476 13.2996 35.0942 14.8159 35.8566C16.3406 36.6189 17.5689 36.0006 17.5689 34.4758C17.5689 32.9511 16.3321 31.1045 14.8159 30.3421C13.2911 29.5882 12.0629 30.2066 12.0629 31.7228ZM12.0629 39.5922C12.0629 41.1169 13.2996 42.9635 14.8159 43.7259C16.3406 44.4883 17.5689 43.8699 17.5689 42.3452C17.5689 40.8204 16.3321 38.9738 14.8159 38.2114C13.2911 37.4575 12.0629 38.0759 12.0629 39.5922ZM12.0629 55.3308C12.0629 56.8556 13.2996 58.7022 14.8159 59.4646C16.3406 60.2269 17.5689 59.6085 17.5689 58.0838C17.5689 56.5591 16.3321 54.7124 14.8159 53.9501C13.2911 53.1962 12.0629 53.8146 12.0629 55.3308ZM12.0629 47.4615C12.0629 48.9862 13.2996 50.8328 14.8159 51.5952C16.3406 52.3576 17.5689 51.7392 17.5689 50.2145C17.5689 48.6897 16.3321 46.8431 14.8159 46.0808C13.2911 45.3269 12.0629 45.9452 12.0629 47.4615ZM4.19354 35.6617C4.19354 37.1865 5.43027 39.0331 6.94654 39.7955C8.47127 40.5578 9.69953 39.9395 9.69953 38.4147C9.69953 36.89 8.4628 35.0434 6.94654 34.281C5.4218 33.5186 4.19354 34.137 4.19354 35.6617ZM9.69953 30.5454C9.69953 29.0207 8.4628 27.174 6.94654 26.4117C5.4218 25.6493 4.19354 26.2677 4.19354 27.7924C4.19354 29.3171 5.43027 31.1638 6.94654 31.9261C8.4628 32.68 9.69953 32.0617 9.69953 30.5454ZM4.19354 43.5311C4.19354 45.0558 5.43027 46.9024 6.94654 47.6648C8.47127 48.4272 9.69953 47.8088 9.69953 46.2841C9.69953 44.7593 8.4628 42.9127 6.94654 42.1503C5.4218 41.388 4.19354 42.0063 4.19354 43.5311ZM4.19354 51.4004C4.19354 52.9251 5.43027 54.7717 6.94654 55.5341C8.47127 56.2965 9.69953 55.6781 9.69953 54.1534C9.69953 52.6287 8.4628 50.782 6.94654 50.0197C5.4218 49.2573 4.19354 49.8757 4.19354 51.4004Z" fill="white"/>
<defs>
<linearGradient id="paint0_linear_24" x1="56.2424" y1="74.9979" x2="56.2424" y2="18.7521" gradientUnits="userSpaceOnUse">
<stop stop-color="#0C5FE7"/>
<stop offset="1" stop-color="#0299ED"/>
</linearGradient>
<linearGradient id="paint1_linear_24" x1="18.7481" y1="74.9979" x2="18.7481" y2="18.7521" gradientUnits="userSpaceOnUse">
<stop stop-color="#073685"/>
<stop offset="1" stop-color="#004AB8"/>
</linearGradient>
</defs>
</svg>
