<svg width="1235" height="318" viewBox="0 0 1235 318" fill="none" xmlns="http://www.w3.org/2000/svg">
<path d="M333 159C333 179.88 328.693 200.556 320.326 219.847C311.959 239.137 299.694 256.665 284.233 271.43C268.772 286.194 250.417 297.906 230.217 305.897C210.016 313.887 188.365 318 166.5 318C144.635 318 122.984 313.887 102.783 305.897C82.5825 297.906 64.2277 286.194 48.7667 271.43C33.3058 256.665 21.0415 239.137 12.6741 219.847C4.30665 200.556 -1.91151e-06 179.88 0 159H33.3C33.3 175.704 36.7453 192.245 43.4392 207.677C50.1332 223.11 59.9446 237.132 72.3134 248.944C84.6821 260.756 99.366 270.125 115.527 276.517C131.687 282.91 149.008 286.2 166.5 286.2C183.992 286.2 201.313 282.91 217.473 276.517C233.634 270.125 248.318 260.756 260.687 248.944C273.055 237.132 282.867 223.11 289.561 207.677C296.255 192.245 299.7 175.704 299.7 159H333Z" fill="#FF0069"/>
<path d="M935 152C935 172.88 930.667 193.556 922.25 212.847C913.832 232.137 901.494 249.665 885.94 264.43C870.387 279.194 851.922 290.906 831.599 298.897C811.277 306.887 789.496 311 767.5 311C745.504 311 723.723 306.887 703.401 298.897C683.078 290.906 664.613 279.194 649.06 264.43C633.506 249.665 621.168 232.137 612.75 212.847C604.333 193.556 600 172.88 600 152H633.5C633.5 168.704 636.966 185.245 643.7 200.677C650.434 216.11 660.305 230.132 672.748 241.944C685.191 253.756 699.963 263.125 716.22 269.517C732.478 275.91 749.903 279.2 767.5 279.2C785.097 279.2 802.522 275.91 818.78 269.517C835.037 263.125 849.809 253.756 862.252 241.944C874.695 230.132 884.566 216.11 891.3 200.677C898.034 185.245 901.5 168.704 901.5 152H935Z" fill="#F5BA5B"/>
<path d="M300.211 159.643C300.184 138.753 304.466 118.06 312.814 98.7464C321.162 79.4325 333.413 61.8755 348.866 47.0778C364.319 32.28 382.672 20.5314 402.878 12.5027C423.084 4.47396 444.746 0.322382 466.627 0.284969C488.509 0.247556 510.182 4.32504 530.409 12.2846C550.636 20.2442 569.02 31.93 584.513 46.6748C600.005 61.4196 612.302 78.9347 620.702 98.22C629.101 117.505 633.438 138.183 633.466 159.073L600.141 159.13C600.119 142.418 596.649 125.876 589.929 110.448C583.209 95.0193 573.372 81.0073 560.978 69.2114C548.584 57.4155 533.876 48.0669 517.695 41.6992C501.514 35.3316 484.175 32.0696 466.67 32.0995C449.164 32.1294 431.835 35.4507 415.67 41.8737C399.506 48.2966 384.823 57.6955 372.46 69.5337C360.098 81.3719 350.298 95.4175 343.619 110.869C336.941 126.32 333.515 142.874 333.537 159.586L300.211 159.643Z" fill="#241C76"/>
<path d="M901.552 159.927C901.524 139.038 905.807 118.345 914.155 99.0311C922.503 79.7172 934.753 62.1601 950.207 47.3624C965.66 32.5647 984.013 20.8161 1004.22 12.7874C1024.42 4.75863 1046.09 0.60705 1067.97 0.569637C1089.85 0.532224 1111.52 4.60971 1131.75 12.5693C1151.98 20.5289 1170.36 32.2147 1185.85 46.9595C1201.35 61.7043 1213.64 79.2194 1222.04 98.5047C1230.44 117.79 1234.78 138.468 1234.81 159.357L1201.48 159.414C1201.46 142.703 1197.99 126.16 1191.27 110.732C1184.55 95.304 1174.71 81.2919 1162.32 69.4961C1149.92 57.7002 1135.22 48.3516 1119.04 41.9839C1102.85 35.6162 1085.52 32.3543 1068.01 32.3842C1050.5 32.4141 1033.18 35.7354 1017.01 42.1583C1000.85 48.5813 986.164 57.9802 973.801 69.8184C961.439 81.6566 951.638 95.7022 944.96 111.153C938.281 126.604 934.855 143.158 934.877 159.87L901.552 159.927Z" fill="#FF0069"/>
<ellipse cx="167.033" cy="148.42" rx="78.0332" ry="80.4199" fill="#FF0069"/>
<ellipse cx="167.447" cy="148.306" rx="60.3802" ry="60.3486" fill="#F4F4F4"/>
<path d="M160.715 165.925C160.325 165.925 159.995 165.82 159.725 165.61C159.485 165.43 159.26 165.19 159.05 164.89L157.385 162.64C156.035 163.18 154.445 163.45 152.615 163.45C148.535 163.45 145.34 162.415 143.03 160.345C140.75 158.275 139.55 155.2 139.43 151.12C139.4 150.25 139.385 148.975 139.385 147.295C139.385 145.585 139.4 144.295 139.43 143.425C139.55 139.435 140.78 136.375 143.12 134.245C145.49 132.115 148.655 131.05 152.615 131.05C156.605 131.05 159.77 132.115 162.11 134.245C164.45 136.375 165.68 139.435 165.8 143.425C165.86 145.165 165.89 146.455 165.89 147.295C165.89 148.105 165.86 149.38 165.8 151.12C165.68 155.08 164.6 158.05 162.56 160.03L165.71 164.53C165.8 164.71 165.845 164.86 165.845 164.98V165.07C165.845 165.31 165.755 165.505 165.575 165.655C165.395 165.835 165.185 165.925 164.945 165.925H160.715ZM152.615 158.23C154.625 158.23 156.215 157.63 157.385 156.43C158.585 155.2 159.215 153.355 159.275 150.895C159.335 149.095 159.365 147.88 159.365 147.25C159.365 146.56 159.335 145.345 159.275 143.605C159.215 141.145 158.585 139.315 157.385 138.115C156.185 136.885 154.595 136.27 152.615 136.27C150.635 136.27 149.045 136.885 147.845 138.115C146.675 139.315 146.045 141.145 145.955 143.605C145.925 144.475 145.91 145.69 145.91 147.25C145.91 148.78 145.925 149.995 145.955 150.895C146.045 153.385 146.675 155.23 147.845 156.43C149.015 157.63 150.605 158.23 152.615 158.23ZM186.064 163C185.764 163 185.509 162.895 185.299 162.685C185.089 162.475 184.984 162.22 184.984 161.92V156.16H170.719C170.419 156.16 170.164 156.055 169.954 155.845C169.744 155.635 169.639 155.38 169.639 155.08V151.975C169.639 151.495 169.804 151.045 170.134 150.625L183.409 132.265C183.559 132.025 183.784 131.845 184.084 131.725C184.384 131.575 184.714 131.5 185.074 131.5H190.024C190.354 131.5 190.609 131.605 190.789 131.815C190.999 131.995 191.104 132.25 191.104 132.58V150.805H195.154C195.484 150.805 195.739 150.91 195.919 151.12C196.129 151.3 196.234 151.555 196.234 151.885V155.08C196.234 155.38 196.129 155.635 195.919 155.845C195.739 156.055 195.484 156.16 195.154 156.16H191.104V161.92C191.104 162.22 190.999 162.475 190.789 162.685C190.609 162.895 190.354 163 190.024 163H186.064ZM175.984 150.985H185.119V138.07L175.984 150.985Z" fill="#FF0069"/>
<ellipse cx="464.033" cy="148.42" rx="78.0332" ry="80.4199" fill="#241C76"/>
<ellipse cx="464.447" cy="148.306" rx="60.3802" ry="60.3486" fill="#F4F4F4"/>
<path d="M457.13 167.925C456.71 167.925 456.365 167.82 456.095 167.61C455.855 167.43 455.63 167.19 455.42 166.89L453.89 164.91C452.78 165.27 451.505 165.45 450.065 165.45C445.805 165.45 442.445 164.415 439.985 162.345C437.525 160.275 436.22 157.23 436.07 153.21C436.04 152.37 436.025 151.08 436.025 149.34C436.025 147.6 436.04 146.295 436.07 145.425C436.22 141.465 437.54 138.42 440.03 136.29C442.52 134.13 445.865 133.05 450.065 133.05C454.265 133.05 457.61 134.13 460.1 136.29C462.59 138.42 463.91 141.465 464.06 145.425C464.12 147.165 464.15 148.47 464.15 149.34C464.15 150.24 464.12 151.53 464.06 153.21C463.88 156.87 462.785 159.735 460.775 161.805L464.105 166.53C464.195 166.71 464.24 166.86 464.24 166.98V167.115C464.24 167.325 464.15 167.505 463.97 167.655C463.79 167.835 463.58 167.925 463.34 167.925H457.13ZM450.065 158.7C451.625 158.7 452.87 158.235 453.8 157.305C454.73 156.345 455.225 154.89 455.285 152.94C455.345 151.2 455.375 149.955 455.375 149.205C455.375 148.455 455.345 147.24 455.285 145.56C455.225 143.61 454.73 142.17 453.8 141.24C452.87 140.28 451.625 139.8 450.065 139.8C448.505 139.8 447.26 140.28 446.33 141.24C445.4 142.17 444.905 143.61 444.845 145.56C444.815 146.4 444.8 147.615 444.8 149.205C444.8 150.825 444.815 152.07 444.845 152.94C444.905 154.89 445.4 156.345 446.33 157.305C447.26 158.235 448.505 158.7 450.065 158.7ZM478.633 165C478.333 165 478.063 164.895 477.823 164.685C477.613 164.445 477.508 164.175 477.508 163.875V142.815L471.478 147.45C471.238 147.6 471.013 147.675 470.803 147.675C470.443 147.675 470.128 147.495 469.858 147.135L467.068 143.535C466.948 143.325 466.888 143.1 466.888 142.86C466.888 142.44 467.053 142.11 467.383 141.87L477.823 133.815C478.123 133.605 478.468 133.5 478.858 133.5H484.798C485.128 133.5 485.398 133.605 485.608 133.815C485.848 134.025 485.968 134.295 485.968 134.625V163.875C485.968 164.205 485.848 164.475 485.608 164.685C485.398 164.895 485.128 165 484.798 165H478.633Z" fill="#100A4C"/>
<ellipse cx="765.033" cy="148.42" rx="78.0332" ry="80.4199" fill="#F5BA5B"/>
<ellipse cx="765.447" cy="148.306" rx="60.3802" ry="60.3486" fill="#F4F4F4"/>
<path d="M754.949 168.12C754.501 168.12 754.133 168.008 753.845 167.784C753.589 167.592 753.349 167.336 753.125 167.016L751.493 164.904C750.309 165.288 748.949 165.48 747.413 165.48C742.869 165.48 739.285 164.376 736.661 162.168C734.037 159.96 732.645 156.712 732.485 152.424C732.453 151.528 732.437 150.152 732.437 148.296C732.437 146.44 732.453 145.048 732.485 144.12C732.645 139.896 734.053 136.648 736.709 134.376C739.365 132.072 742.933 130.92 747.413 130.92C751.893 130.92 755.461 132.072 758.117 134.376C760.773 136.648 762.181 139.896 762.341 144.12C762.405 145.976 762.437 147.368 762.437 148.296C762.437 149.256 762.405 150.632 762.341 152.424C762.149 156.328 760.981 159.384 758.837 161.592L762.389 166.632C762.485 166.824 762.533 166.984 762.533 167.112V167.256C762.533 167.48 762.437 167.672 762.245 167.832C762.053 168.024 761.829 168.12 761.573 168.12H754.949ZM747.413 158.28C749.077 158.28 750.405 157.784 751.397 156.792C752.389 155.768 752.917 154.216 752.981 152.136C753.045 150.28 753.077 148.952 753.077 148.152C753.077 147.352 753.045 146.056 752.981 144.264C752.917 142.184 752.389 140.648 751.397 139.656C750.405 138.632 749.077 138.12 747.413 138.12C745.749 138.12 744.421 138.632 743.429 139.656C742.437 140.648 741.909 142.184 741.845 144.264C741.813 145.16 741.797 146.456 741.797 148.152C741.797 149.88 741.813 151.208 741.845 152.136C741.909 154.216 742.437 155.768 743.429 156.792C744.421 157.784 745.749 158.28 747.413 158.28ZM767.757 165C767.437 165 767.149 164.888 766.893 164.664C766.669 164.408 766.557 164.12 766.557 163.8V160.2C766.557 159.24 766.957 158.44 767.757 157.8L772.221 153.432C775.261 151.128 777.549 149.336 779.085 148.056C780.653 146.776 781.837 145.624 782.637 144.6C783.469 143.544 783.885 142.552 783.885 141.624C783.885 139.256 782.701 138.072 780.333 138.072C779.085 138.072 778.125 138.456 777.453 139.224C776.781 139.96 776.333 140.888 776.109 142.008C775.917 142.744 775.373 143.112 774.477 143.112H768.141C767.853 143.112 767.597 143.016 767.373 142.824C767.181 142.6 767.085 142.36 767.085 142.104C767.149 139.992 767.725 138.088 768.813 136.392C769.933 134.664 771.485 133.304 773.469 132.312C775.453 131.288 777.741 130.776 780.333 130.776C783.021 130.776 785.341 131.208 787.293 132.072C789.245 132.936 790.717 134.152 791.709 135.72C792.733 137.288 793.245 139.112 793.245 141.192C793.245 143.496 792.525 145.576 791.085 147.432C789.677 149.288 787.517 151.304 784.605 153.48L780.621 157.464H792.765C793.117 157.464 793.405 157.576 793.629 157.8C793.853 158.024 793.965 158.312 793.965 158.664V163.8C793.965 164.12 793.853 164.408 793.629 164.664C793.405 164.888 793.117 165 792.765 165H767.757Z" fill="#F5BA5B"/>
<ellipse cx="1069.03" cy="157.42" rx="78.0332" ry="80.4199" fill="#FF0069"/>
<ellipse cx="1069.45" cy="157.306" rx="60.3802" ry="60.3486" fill="#F4F4F4"/>
<path d="M1060.04 176.12C1059.6 176.12 1059.23 176.008 1058.94 175.784C1058.68 175.592 1058.44 175.336 1058.22 175.016L1056.59 172.856C1055.37 173.272 1053.95 173.48 1052.32 173.48C1047.8 173.48 1044.25 172.376 1041.66 170.168C1039.1 167.96 1037.74 164.712 1037.58 160.424C1037.55 159.496 1037.53 158.12 1037.53 156.296C1037.53 154.44 1037.55 153.048 1037.58 152.12C1037.71 147.896 1039.08 144.648 1041.71 142.376C1044.36 140.072 1047.9 138.92 1052.32 138.92C1056.73 138.92 1060.27 140.072 1062.92 142.376C1065.58 144.648 1066.97 147.896 1067.1 152.12C1067.16 153.976 1067.2 155.368 1067.2 156.296C1067.2 157.192 1067.16 158.568 1067.1 160.424C1066.97 164.36 1065.82 167.432 1063.64 169.64L1067.15 174.632C1067.24 174.824 1067.29 174.984 1067.29 175.112V175.208C1067.29 175.464 1067.2 175.672 1067 175.832C1066.81 176.024 1066.59 176.12 1066.33 176.12H1060.04ZM1052.32 166.568C1054.08 166.568 1055.47 166.04 1056.49 164.984C1057.55 163.928 1058.11 162.312 1058.17 160.136C1058.24 158.28 1058.27 156.968 1058.27 156.2C1058.27 155.368 1058.24 154.056 1058.17 152.264C1058.11 150.088 1057.55 148.472 1056.49 147.416C1055.47 146.36 1054.08 145.832 1052.32 145.832C1050.59 145.832 1049.2 146.36 1048.14 147.416C1047.12 148.472 1046.57 150.088 1046.51 152.264C1046.48 153.16 1046.46 154.472 1046.46 156.2C1046.46 157.896 1046.48 159.208 1046.51 160.136C1046.57 162.312 1047.12 163.928 1048.14 164.984C1049.16 166.04 1050.56 166.568 1052.32 166.568ZM1085.05 173.48C1081.94 173.48 1079.34 173 1077.22 172.04C1075.14 171.08 1073.59 169.896 1072.57 168.488C1071.58 167.048 1071.05 165.608 1070.98 164.168C1070.98 163.88 1071.08 163.64 1071.27 163.448C1071.5 163.256 1071.75 163.16 1072.04 163.16H1078.33C1078.68 163.16 1078.97 163.224 1079.19 163.352C1079.42 163.48 1079.62 163.72 1079.82 164.072C1080.46 165.736 1082.2 166.568 1085.05 166.568C1086.68 166.568 1087.94 166.2 1088.84 165.464C1089.77 164.696 1090.23 163.656 1090.23 162.344C1090.23 159.784 1088.57 158.504 1085.24 158.504H1079.91C1079.59 158.504 1079.3 158.392 1079.05 158.168C1078.82 157.912 1078.71 157.624 1078.71 157.304V154.616C1078.71 153.912 1078.97 153.368 1079.48 152.984L1087.35 146.312H1074.01C1073.69 146.312 1073.4 146.2 1073.14 145.976C1072.92 145.72 1072.81 145.432 1072.81 145.112V140.6C1072.81 140.248 1072.92 139.96 1073.14 139.736C1073.4 139.512 1073.69 139.4 1074.01 139.4H1096.09C1096.44 139.4 1096.73 139.512 1096.95 139.736C1097.21 139.96 1097.34 140.248 1097.34 140.6V144.68C1097.34 145.288 1097.08 145.816 1096.57 146.264L1089.27 153.032L1089.61 153.128C1092.55 153.512 1094.87 154.504 1096.57 156.104C1098.3 157.672 1099.16 159.928 1099.16 162.872C1099.16 165.016 1098.55 166.888 1097.34 168.488C1096.12 170.088 1094.44 171.32 1092.3 172.184C1090.15 173.048 1087.74 173.48 1085.05 173.48Z" fill="#FF0069"/>
</svg>
