<svg width="1535" height="318" viewBox="0 0 1535 318" fill="none" xmlns="http://www.w3.org/2000/svg">
<path d="M333 159C333 179.88 328.693 200.556 320.326 219.847C311.959 239.137 299.694 256.665 284.233 271.43C268.772 286.194 250.417 297.906 230.217 305.897C210.016 313.887 188.365 318 166.5 318C144.635 318 122.984 313.887 102.783 305.897C82.5825 297.906 64.2277 286.194 48.7667 271.43C33.3058 256.665 21.0415 239.137 12.6741 219.847C4.30665 200.556 -1.91151e-06 179.88 0 159H33.3C33.3 175.704 36.7453 192.245 43.4392 207.677C50.1332 223.11 59.9446 237.132 72.3134 248.944C84.6821 260.756 99.366 270.125 115.527 276.517C131.687 282.91 149.008 286.2 166.5 286.2C183.992 286.2 201.313 282.91 217.473 276.517C233.634 270.125 248.318 260.756 260.687 248.944C273.055 237.132 282.867 223.11 289.561 207.677C296.255 192.245 299.7 175.704 299.7 159H333Z" fill="#FF0069"/>
<path d="M935 152C935 172.88 930.667 193.556 922.25 212.847C913.832 232.137 901.494 249.665 885.94 264.43C870.387 279.194 851.922 290.906 831.599 298.897C811.277 306.887 789.496 311 767.5 311C745.504 311 723.723 306.887 703.401 298.897C683.078 290.906 664.613 279.194 649.06 264.43C633.506 249.665 621.168 232.137 612.75 212.847C604.333 193.556 600 172.88 600 152H633.5C633.5 168.704 636.966 185.245 643.7 200.677C650.434 216.11 660.305 230.132 672.748 241.944C685.191 253.756 699.963 263.125 716.22 269.517C732.478 275.91 749.903 279.2 767.5 279.2C785.097 279.2 802.522 275.91 818.78 269.517C835.037 263.125 849.809 253.756 862.252 241.944C874.695 230.132 884.566 216.11 891.3 200.677C898.034 185.245 901.5 168.704 901.5 152H935Z" fill="#F5BA5B"/>
<path d="M1535 159C1535 179.88 1530.69 200.556 1522.33 219.847C1513.96 239.137 1501.69 256.665 1486.23 271.43C1470.77 286.194 1452.42 297.906 1432.22 305.897C1412.02 313.887 1390.37 318 1368.5 318C1346.63 318 1324.98 313.887 1304.78 305.897C1284.58 297.906 1266.23 286.194 1250.77 271.43C1235.31 256.665 1223.04 239.137 1214.67 219.847C1206.31 200.556 1202 179.88 1202 159H1235.3C1235.3 175.704 1238.75 192.245 1245.44 207.677C1252.13 223.11 1261.94 237.132 1274.31 248.944C1286.68 260.756 1301.37 270.125 1317.53 276.517C1333.69 282.91 1351.01 286.2 1368.5 286.2C1385.99 286.2 1403.31 282.91 1419.47 276.517C1435.63 270.125 1450.32 260.756 1462.69 248.944C1475.06 237.132 1484.87 223.11 1491.56 207.677C1498.25 192.245 1501.7 175.704 1501.7 159H1535Z" fill="#ABCB9C"/>
<path d="M300.211 159.643C300.184 138.753 304.466 118.06 312.814 98.7464C321.162 79.4325 333.413 61.8755 348.866 47.0778C364.319 32.28 382.672 20.5314 402.878 12.5027C423.084 4.47396 444.746 0.322382 466.627 0.284969C488.509 0.247556 510.182 4.32504 530.409 12.2846C550.636 20.2442 569.02 31.93 584.513 46.6748C600.005 61.4196 612.302 78.9347 620.702 98.22C629.101 117.505 633.438 138.183 633.466 159.073L600.141 159.13C600.119 142.418 596.649 125.876 589.929 110.448C583.209 95.0193 573.372 81.0073 560.978 69.2114C548.584 57.4155 533.876 48.0669 517.695 41.6992C501.514 35.3316 484.175 32.0696 466.67 32.0995C449.164 32.1294 431.835 35.4507 415.67 41.8737C399.506 48.2966 384.823 57.6955 372.46 69.5337C360.098 81.3719 350.298 95.4175 343.619 110.869C336.941 126.32 333.515 142.874 333.537 159.586L300.211 159.643Z" fill="#241C76"/>
<path d="M901.552 159.927C901.524 139.038 905.807 118.345 914.155 99.0311C922.503 79.7172 934.753 62.1601 950.207 47.3624C965.66 32.5647 984.013 20.8161 1004.22 12.7874C1024.42 4.75863 1046.09 0.60705 1067.97 0.569637C1089.85 0.532224 1111.52 4.60971 1131.75 12.5693C1151.98 20.5289 1170.36 32.2147 1185.85 46.9595C1201.35 61.7043 1213.64 79.2194 1222.04 98.5047C1230.44 117.79 1234.78 138.468 1234.81 159.357L1201.48 159.414C1201.46 142.703 1197.99 126.16 1191.27 110.732C1184.55 95.304 1174.71 81.2919 1162.32 69.4961C1149.92 57.7002 1135.22 48.3516 1119.04 41.9839C1102.85 35.6162 1085.52 32.3543 1068.01 32.3842C1050.5 32.4141 1033.18 35.7354 1017.01 42.1583C1000.85 48.5813 986.164 57.9802 973.801 69.8184C961.439 81.6566 951.638 95.7022 944.96 111.153C938.281 126.604 934.855 143.158 934.877 159.87L901.552 159.927Z" fill="#FF0069"/>
</svg>
